<mxfile host="drawio-plugin" modified="2022-09-21T13:50:58.397Z" agent="5.0 (X11; Linux x86_64) AppleWebKit/537.36 (KHTML, like Gecko) Chrome/98.0.4758.102 Safari/537.36" etag="JPwS0uQfY2OQgmjlBbKa" version="15.5.4" type="embed"><diagram id="C5RBs43oDa-KdzZeNtuy" name="Page-1"><mxGraphModel dx="1875" dy="1767" grid="1" gridSize="10" guides="1" tooltips="1" connect="1" arrows="1" fold="1" page="1" pageScale="1" pageWidth="827" pageHeight="1169" math="0" shadow="0"><root><mxCell id="WIyWlLk6GJQsqaUBKTNV-0"/><mxCell id="WIyWlLk6GJQsqaUBKTNV-1" parent="WIyWlLk6GJQsqaUBKTNV-0"/><mxCell id="MOedAdVH91UR65nQslZQ-0" value="Employee" style="swimlane;fontStyle=1;childLayout=stackLayout;horizontal=1;startSize=26;horizontalStack=0;resizeParent=1;resizeParentMax=0;resizeLast=0;collapsible=1;marginBottom=0;" parent="WIyWlLk6GJQsqaUBKTNV-1" vertex="1"><mxGeometry x="-590" y="130" width="160" height="86" as="geometry"/></mxCell><mxCell id="MOedAdVH91UR65nQslZQ-1" value="- age: int" style="text;strokeColor=none;fillColor=none;align=left;verticalAlign=top;spacingLeft=4;spacingRight=4;overflow=hidden;rotatable=0;points=[[0,0.5],[1,0.5]];portConstraint=eastwest;" parent="MOedAdVH91UR65nQslZQ-0" vertex="1"><mxGeometry y="26" width="160" height="26" as="geometry"/></mxCell><mxCell id="MOedAdVH91UR65nQslZQ-2" value="- name: String" style="text;strokeColor=none;fillColor=none;align=left;verticalAlign=top;spacingLeft=4;spacingRight=4;overflow=hidden;rotatable=0;points=[[0,0.5],[1,0.5]];portConstraint=eastwest;" parent="MOedAdVH91UR65nQslZQ-0" vertex="1"><mxGeometry y="52" width="160" height="26" as="geometry"/></mxCell><mxCell id="MOedAdVH91UR65nQslZQ-3" value="" style="line;strokeWidth=1;fillColor=none;align=left;verticalAlign=middle;spacingTop=-1;spacingLeft=3;spacingRight=3;rotatable=0;labelPosition=right;points=[];portConstraint=eastwest;" parent="MOedAdVH91UR65nQslZQ-0" vertex="1"><mxGeometry y="78" width="160" height="8" as="geometry"/></mxCell><mxCell id="MOedAdVH91UR65nQslZQ-33" style="edgeStyle=orthogonalEdgeStyle;rounded=0;orthogonalLoop=1;jettySize=auto;html=1;endArrow=blockThin;endFill=0;endSize=13;" parent="WIyWlLk6GJQsqaUBKTNV-1" source="MOedAdVH91UR65nQslZQ-4" target="MOedAdVH91UR65nQslZQ-0" edge="1"><mxGeometry relative="1" as="geometry"><Array as="points"><mxPoint x="-710" y="250"/><mxPoint x="-510" y="250"/></Array></mxGeometry></mxCell><mxCell id="MOedAdVH91UR65nQslZQ-4" value="Engineer" style="swimlane;fontStyle=1;childLayout=stackLayout;horizontal=1;startSize=26;horizontalStack=0;resizeParent=1;resizeParentMax=0;resizeLast=0;collapsible=1;marginBottom=0;" parent="WIyWlLk6GJQsqaUBKTNV-1" vertex="1"><mxGeometry x="-790" y="320" width="160" height="34" as="geometry"/></mxCell><mxCell id="MOedAdVH91UR65nQslZQ-5" value="" style="line;strokeWidth=1;fillColor=none;align=left;verticalAlign=middle;spacingTop=-1;spacingLeft=3;spacingRight=3;rotatable=0;labelPosition=right;points=[];portConstraint=eastwest;" parent="MOedAdVH91UR65nQslZQ-4" vertex="1"><mxGeometry y="26" width="160" height="8" as="geometry"/></mxCell><mxCell id="MOedAdVH91UR65nQslZQ-34" style="edgeStyle=orthogonalEdgeStyle;rounded=0;orthogonalLoop=1;jettySize=auto;html=1;endArrow=blockThin;endFill=0;endSize=13;" parent="WIyWlLk6GJQsqaUBKTNV-1" source="MOedAdVH91UR65nQslZQ-6" target="MOedAdVH91UR65nQslZQ-0" edge="1"><mxGeometry relative="1" as="geometry"/></mxCell><mxCell id="MOedAdVH91UR65nQslZQ-6" value="PitCrew" style="swimlane;fontStyle=1;childLayout=stackLayout;horizontal=1;startSize=26;horizontalStack=0;resizeParent=1;resizeParentMax=0;resizeLast=0;collapsible=1;marginBottom=0;" parent="WIyWlLk6GJQsqaUBKTNV-1" vertex="1"><mxGeometry x="-590" y="320" width="160" height="34" as="geometry"/></mxCell><mxCell id="MOedAdVH91UR65nQslZQ-7" value="" style="line;strokeWidth=1;fillColor=none;align=left;verticalAlign=middle;spacingTop=-1;spacingLeft=3;spacingRight=3;rotatable=0;labelPosition=right;points=[];portConstraint=eastwest;" parent="MOedAdVH91UR65nQslZQ-6" vertex="1"><mxGeometry y="26" width="160" height="8" as="geometry"/></mxCell><mxCell id="MOedAdVH91UR65nQslZQ-35" style="edgeStyle=orthogonalEdgeStyle;rounded=0;orthogonalLoop=1;jettySize=auto;html=1;endArrow=blockThin;endFill=0;endSize=13;" parent="WIyWlLk6GJQsqaUBKTNV-1" source="MOedAdVH91UR65nQslZQ-8" target="MOedAdVH91UR65nQslZQ-0" edge="1"><mxGeometry relative="1" as="geometry"><Array as="points"><mxPoint x="-310" y="250"/><mxPoint x="-510" y="250"/></Array></mxGeometry></mxCell><mxCell id="MOedAdVH91UR65nQslZQ-8" value="Drivers" style="swimlane;fontStyle=1;childLayout=stackLayout;horizontal=1;startSize=26;horizontalStack=0;resizeParent=1;resizeParentMax=0;resizeLast=0;collapsible=1;marginBottom=0;" parent="WIyWlLk6GJQsqaUBKTNV-1" vertex="1"><mxGeometry x="-390" y="320" width="160" height="60" as="geometry"/></mxCell><mxCell id="MOedAdVH91UR65nQslZQ-9" value="- experience: Experience" style="text;strokeColor=none;fillColor=none;align=left;verticalAlign=top;spacingLeft=4;spacingRight=4;overflow=hidden;rotatable=0;points=[[0,0.5],[1,0.5]];portConstraint=eastwest;" parent="MOedAdVH91UR65nQslZQ-8" vertex="1"><mxGeometry y="26" width="160" height="26" as="geometry"/></mxCell><mxCell id="MOedAdVH91UR65nQslZQ-10" value="" style="line;strokeWidth=1;fillColor=none;align=left;verticalAlign=middle;spacingTop=-1;spacingLeft=3;spacingRight=3;rotatable=0;labelPosition=right;points=[];portConstraint=eastwest;" parent="MOedAdVH91UR65nQslZQ-8" vertex="1"><mxGeometry y="52" width="160" height="8" as="geometry"/></mxCell><mxCell id="MOedAdVH91UR65nQslZQ-41" style="edgeStyle=orthogonalEdgeStyle;rounded=0;orthogonalLoop=1;jettySize=auto;html=1;endArrow=none;endFill=0;endSize=13;" parent="WIyWlLk6GJQsqaUBKTNV-1" source="MOedAdVH91UR65nQslZQ-11" target="MOedAdVH91UR65nQslZQ-8" edge="1"><mxGeometry relative="1" as="geometry"/></mxCell><mxCell id="MOedAdVH91UR65nQslZQ-11" value="Experience" style="swimlane;fontStyle=1;childLayout=stackLayout;horizontal=1;startSize=26;horizontalStack=0;resizeParent=1;resizeParentMax=0;resizeLast=0;collapsible=1;marginBottom=0;" parent="WIyWlLk6GJQsqaUBKTNV-1" vertex="1"><mxGeometry x="-310" y="436" width="160" height="130" as="geometry"/></mxCell><mxCell id="MOedAdVH91UR65nQslZQ-12" value="BEGINNER(20000)" style="text;strokeColor=none;fillColor=none;align=left;verticalAlign=top;spacingLeft=4;spacingRight=4;overflow=hidden;rotatable=0;points=[[0,0.5],[1,0.5]];portConstraint=eastwest;" parent="MOedAdVH91UR65nQslZQ-11" vertex="1"><mxGeometry y="26" width="160" height="26" as="geometry"/></mxCell><mxCell id="MOedAdVH91UR65nQslZQ-13" value="MEDIUM(40000)" style="text;strokeColor=none;fillColor=none;align=left;verticalAlign=top;spacingLeft=4;spacingRight=4;overflow=hidden;rotatable=0;points=[[0,0.5],[1,0.5]];portConstraint=eastwest;" parent="MOedAdVH91UR65nQslZQ-11" vertex="1"><mxGeometry y="52" width="160" height="26" as="geometry"/></mxCell><mxCell id="MOedAdVH91UR65nQslZQ-14" value="EXPERT(100000)" style="text;strokeColor=none;fillColor=none;align=left;verticalAlign=top;spacingLeft=4;spacingRight=4;overflow=hidden;rotatable=0;points=[[0,0.5],[1,0.5]];portConstraint=eastwest;" parent="MOedAdVH91UR65nQslZQ-11" vertex="1"><mxGeometry y="78" width="160" height="26" as="geometry"/></mxCell><mxCell id="MOedAdVH91UR65nQslZQ-15" value="- salary: float" style="text;strokeColor=none;fillColor=none;align=left;verticalAlign=top;spacingLeft=4;spacingRight=4;overflow=hidden;rotatable=0;points=[[0,0.5],[1,0.5]];portConstraint=eastwest;" parent="MOedAdVH91UR65nQslZQ-11" vertex="1"><mxGeometry y="104" width="160" height="26" as="geometry"/></mxCell><mxCell id="MOedAdVH91UR65nQslZQ-16" value="&lt;&lt; CrewSalary &gt;&gt;" style="swimlane;fontStyle=1;childLayout=stackLayout;horizontal=1;startSize=26;horizontalStack=0;resizeParent=1;resizeParentMax=0;resizeLast=0;collapsible=1;marginBottom=0;" parent="WIyWlLk6GJQsqaUBKTNV-1" vertex="1"><mxGeometry x="-690" y="458" width="170" height="86" as="geometry"/></mxCell><mxCell id="MOedAdVH91UR65nQslZQ-17" value="- salary: float" style="text;strokeColor=none;fillColor=none;align=left;verticalAlign=top;spacingLeft=4;spacingRight=4;overflow=hidden;rotatable=0;points=[[0,0.5],[1,0.5]];portConstraint=eastwest;" parent="MOedAdVH91UR65nQslZQ-16" vertex="1"><mxGeometry y="26" width="170" height="26" as="geometry"/></mxCell><mxCell id="MOedAdVH91UR65nQslZQ-18" value="" style="line;strokeWidth=1;fillColor=none;align=left;verticalAlign=middle;spacingTop=-1;spacingLeft=3;spacingRight=3;rotatable=0;labelPosition=right;points=[];portConstraint=eastwest;" parent="MOedAdVH91UR65nQslZQ-16" vertex="1"><mxGeometry y="52" width="170" height="8" as="geometry"/></mxCell><mxCell id="MOedAdVH91UR65nQslZQ-19" value="+ calcSalary(int days): float" style="text;strokeColor=none;fillColor=none;align=left;verticalAlign=top;spacingLeft=4;spacingRight=4;overflow=hidden;rotatable=0;points=[[0,0.5],[1,0.5]];portConstraint=eastwest;" parent="MOedAdVH91UR65nQslZQ-16" vertex="1"><mxGeometry y="60" width="170" height="26" as="geometry"/></mxCell><mxCell id="MOedAdVH91UR65nQslZQ-20" value="Car" style="swimlane;fontStyle=1;childLayout=stackLayout;horizontal=1;startSize=26;horizontalStack=0;resizeParent=1;resizeParentMax=0;resizeLast=0;collapsible=1;marginBottom=0;" parent="WIyWlLk6GJQsqaUBKTNV-1" vertex="1"><mxGeometry x="-50" y="143" width="160" height="86" as="geometry"/></mxCell><mxCell id="MOedAdVH91UR65nQslZQ-21" value="- carPart: float" style="text;strokeColor=none;fillColor=none;align=left;verticalAlign=top;spacingLeft=4;spacingRight=4;overflow=hidden;rotatable=0;points=[[0,0.5],[1,0.5]];portConstraint=eastwest;" parent="MOedAdVH91UR65nQslZQ-20" vertex="1"><mxGeometry y="26" width="160" height="26" as="geometry"/></mxCell><mxCell id="MOedAdVH91UR65nQslZQ-22" value="" style="line;strokeWidth=1;fillColor=none;align=left;verticalAlign=middle;spacingTop=-1;spacingLeft=3;spacingRight=3;rotatable=0;labelPosition=right;points=[];portConstraint=eastwest;" parent="MOedAdVH91UR65nQslZQ-20" vertex="1"><mxGeometry y="52" width="160" height="8" as="geometry"/></mxCell><mxCell id="MOedAdVH91UR65nQslZQ-44" value="+ calcCarPartCost(): float" style="text;strokeColor=none;fillColor=none;align=left;verticalAlign=top;spacingLeft=4;spacingRight=4;overflow=hidden;rotatable=0;points=[[0,0.5],[1,0.5]];portConstraint=eastwest;" parent="MOedAdVH91UR65nQslZQ-20" vertex="1"><mxGeometry y="60" width="160" height="26" as="geometry"/></mxCell><mxCell id="MOedAdVH91UR65nQslZQ-42" style="edgeStyle=orthogonalEdgeStyle;rounded=0;orthogonalLoop=1;jettySize=auto;html=1;endArrow=none;endFill=0;endSize=13;" parent="WIyWlLk6GJQsqaUBKTNV-1" source="MOedAdVH91UR65nQslZQ-23" target="MOedAdVH91UR65nQslZQ-27" edge="1"><mxGeometry relative="1" as="geometry"/></mxCell><mxCell id="MOedAdVH91UR65nQslZQ-23" value="Races" style="swimlane;fontStyle=1;childLayout=stackLayout;horizontal=1;startSize=26;horizontalStack=0;resizeParent=1;resizeParentMax=0;resizeLast=0;collapsible=1;marginBottom=0;" parent="WIyWlLk6GJQsqaUBKTNV-1" vertex="1"><mxGeometry x="100" y="-83" width="160" height="104" as="geometry"/></mxCell><mxCell id="MOedAdVH91UR65nQslZQ-24" value="WIN(10000000)" style="text;strokeColor=none;fillColor=none;align=left;verticalAlign=top;spacingLeft=4;spacingRight=4;overflow=hidden;rotatable=0;points=[[0,0.5],[1,0.5]];portConstraint=eastwest;" parent="MOedAdVH91UR65nQslZQ-23" vertex="1"><mxGeometry y="26" width="160" height="26" as="geometry"/></mxCell><mxCell id="MOedAdVH91UR65nQslZQ-25" value="SECOND(1000000)" style="text;strokeColor=none;fillColor=none;align=left;verticalAlign=top;spacingLeft=4;spacingRight=4;overflow=hidden;rotatable=0;points=[[0,0.5],[1,0.5]];portConstraint=eastwest;" parent="MOedAdVH91UR65nQslZQ-23" vertex="1"><mxGeometry y="52" width="160" height="26" as="geometry"/></mxCell><mxCell id="MOedAdVH91UR65nQslZQ-26" value="- price: float" style="text;strokeColor=none;fillColor=none;align=left;verticalAlign=top;spacingLeft=4;spacingRight=4;overflow=hidden;rotatable=0;points=[[0,0.5],[1,0.5]];portConstraint=eastwest;" parent="MOedAdVH91UR65nQslZQ-23" vertex="1"><mxGeometry y="78" width="160" height="26" as="geometry"/></mxCell><mxCell id="MOedAdVH91UR65nQslZQ-27" value="Team" style="swimlane;fontStyle=1;childLayout=stackLayout;horizontal=1;startSize=26;horizontalStack=0;resizeParent=1;resizeParentMax=0;resizeLast=0;collapsible=1;marginBottom=0;" parent="WIyWlLk6GJQsqaUBKTNV-1" vertex="1"><mxGeometry x="-430" y="-180" width="280" height="138" as="geometry"/></mxCell><mxCell id="MOedAdVH91UR65nQslZQ-28" value="- employees: List&lt;Employee&gt;" style="text;strokeColor=none;fillColor=none;align=left;verticalAlign=top;spacingLeft=4;spacingRight=4;overflow=hidden;rotatable=0;points=[[0,0.5],[1,0.5]];portConstraint=eastwest;" parent="MOedAdVH91UR65nQslZQ-27" vertex="1"><mxGeometry y="26" width="280" height="26" as="geometry"/></mxCell><mxCell id="MOedAdVH91UR65nQslZQ-29" value="" style="line;strokeWidth=1;fillColor=none;align=left;verticalAlign=middle;spacingTop=-1;spacingLeft=3;spacingRight=3;rotatable=0;labelPosition=right;points=[];portConstraint=eastwest;" parent="MOedAdVH91UR65nQslZQ-27" vertex="1"><mxGeometry y="52" width="280" height="8" as="geometry"/></mxCell><mxCell id="MOedAdVH91UR65nQslZQ-30" value="+ calcSalary(): float" style="text;strokeColor=none;fillColor=none;align=left;verticalAlign=top;spacingLeft=4;spacingRight=4;overflow=hidden;rotatable=0;points=[[0,0.5],[1,0.5]];portConstraint=eastwest;" parent="MOedAdVH91UR65nQslZQ-27" vertex="1"><mxGeometry y="60" width="280" height="26" as="geometry"/></mxCell><mxCell id="MOedAdVH91UR65nQslZQ-31" value="+ calcProfit(int races, int wins, int second): float " style="text;strokeColor=none;fillColor=none;align=left;verticalAlign=top;spacingLeft=4;spacingRight=4;overflow=hidden;rotatable=0;points=[[0,0.5],[1,0.5]];portConstraint=eastwest;" parent="MOedAdVH91UR65nQslZQ-27" vertex="1"><mxGeometry y="86" width="280" height="26" as="geometry"/></mxCell><mxCell id="MOedAdVH91UR65nQslZQ-32" value="+ calcIncome(int races, int wins, int seconds): float" style="text;strokeColor=none;fillColor=none;align=left;verticalAlign=top;spacingLeft=4;spacingRight=4;overflow=hidden;rotatable=0;points=[[0,0.5],[1,0.5]];portConstraint=eastwest;" parent="MOedAdVH91UR65nQslZQ-27" vertex="1"><mxGeometry y="112" width="280" height="26" as="geometry"/></mxCell><mxCell id="MOedAdVH91UR65nQslZQ-36" value="" style="endArrow=block;dashed=1;endFill=0;endSize=12;html=1;rounded=0;" parent="WIyWlLk6GJQsqaUBKTNV-1" source="MOedAdVH91UR65nQslZQ-16" target="MOedAdVH91UR65nQslZQ-4" edge="1"><mxGeometry width="160" relative="1" as="geometry"><mxPoint x="-780" y="410" as="sourcePoint"/><mxPoint x="-620" y="410" as="targetPoint"/></mxGeometry></mxCell><mxCell id="MOedAdVH91UR65nQslZQ-37" value="" style="endArrow=block;dashed=1;endFill=0;endSize=12;html=1;rounded=0;" parent="WIyWlLk6GJQsqaUBKTNV-1" source="MOedAdVH91UR65nQslZQ-16" target="MOedAdVH91UR65nQslZQ-6" edge="1"><mxGeometry width="160" relative="1" as="geometry"><mxPoint x="-622.530487804878" y="468" as="sourcePoint"/><mxPoint x="-689.1158536585365" y="364" as="targetPoint"/></mxGeometry></mxCell><mxCell id="1" value="" style="endArrow=diamondThin;endFill=1;endSize=24;html=1;rounded=0;" parent="WIyWlLk6GJQsqaUBKTNV-1" source="MOedAdVH91UR65nQslZQ-0" target="MOedAdVH91UR65nQslZQ-27" edge="1"><mxGeometry width="160" relative="1" as="geometry"><mxPoint x="-330" y="80" as="sourcePoint"/><mxPoint x="-320" y="40" as="targetPoint"/></mxGeometry></mxCell><mxCell id="2" value="" style="endArrow=diamondThin;endFill=1;endSize=24;html=1;rounded=0;" edge="1" parent="WIyWlLk6GJQsqaUBKTNV-1" source="MOedAdVH91UR65nQslZQ-20" target="MOedAdVH91UR65nQslZQ-27"><mxGeometry width="160" relative="1" as="geometry"><mxPoint x="-466.69014084507035" y="140" as="sourcePoint"/><mxPoint x="-333.4507042253522" y="-32" as="targetPoint"/></mxGeometry></mxCell></root></mxGraphModel></diagram></mxfile>